<svg width="238" height="67" viewBox="0 0 238 67" fill="none" xmlns="http://www.w3.org/2000/svg">
<path d="M52.564 46V27.1H55.012V32.248L54.76 31.348C55.288 29.908 56.176 28.816 57.424 28.072C58.672 27.304 60.22 26.92 62.068 26.92V29.404C61.972 29.404 61.876 29.404 61.78 29.404C61.684 29.38 61.588 29.368 61.492 29.368C59.5 29.368 57.94 29.98 56.812 31.204C55.684 32.404 55.12 34.12 55.12 36.352V46H52.564ZM74.5842 46.18C72.6162 46.18 70.8882 45.772 69.4002 44.956C67.9122 44.116 66.7482 42.976 65.9082 41.536C65.0682 40.072 64.6482 38.404 64.6482 36.532C64.6482 34.66 65.0442 33.004 65.8362 31.564C66.6522 30.124 67.7562 28.996 69.1482 28.18C70.5642 27.34 72.1482 26.92 73.9002 26.92C75.6762 26.92 77.2482 27.328 78.6162 28.144C80.0082 28.936 81.1002 30.064 81.8922 31.528C82.6842 32.968 83.0802 34.636 83.0802 36.532C83.0802 36.652 83.0682 36.784 83.0442 36.928C83.0442 37.048 83.0442 37.18 83.0442 37.324H66.5922V35.416H81.6762L80.6682 36.172C80.6682 34.804 80.3682 33.592 79.7682 32.536C79.1922 31.456 78.4002 30.616 77.3922 30.016C76.3842 29.416 75.2202 29.116 73.9002 29.116C72.6042 29.116 71.4402 29.416 70.4082 30.016C69.3762 30.616 68.5722 31.456 67.9962 32.536C67.4202 33.616 67.1322 34.852 67.1322 36.244V36.64C67.1322 38.08 67.4442 39.352 68.0682 40.456C68.7162 41.536 69.6042 42.388 70.7322 43.012C71.8842 43.612 73.1922 43.912 74.6562 43.912C75.8082 43.912 76.8762 43.708 77.8602 43.3C78.8682 42.892 79.7322 42.268 80.4522 41.428L81.8922 43.084C81.0522 44.092 79.9962 44.86 78.7242 45.388C77.4762 45.916 76.0962 46.18 74.5842 46.18ZM96.1308 46.18C94.2588 46.18 92.5788 45.772 91.0908 44.956C89.6268 44.116 88.4748 42.976 87.6348 41.536C86.7948 40.072 86.3748 38.404 86.3748 36.532C86.3748 34.636 86.7948 32.968 87.6348 31.528C88.4748 30.088 89.6268 28.96 91.0908 28.144C92.5788 27.328 94.2588 26.92 96.1308 26.92C97.7388 26.92 99.1908 27.232 100.487 27.856C101.783 28.48 102.803 29.416 103.547 30.664L101.639 31.96C100.991 31 100.187 30.292 99.2268 29.836C98.2668 29.38 97.2228 29.152 96.0948 29.152C94.7508 29.152 93.5388 29.464 92.4588 30.088C91.3788 30.688 90.5268 31.54 89.9028 32.644C89.2788 33.748 88.9668 35.044 88.9668 36.532C88.9668 38.02 89.2788 39.316 89.9028 40.42C90.5268 41.524 91.3788 42.388 92.4588 43.012C93.5388 43.612 94.7508 43.912 96.0948 43.912C97.2228 43.912 98.2668 43.684 99.2268 43.228C100.187 42.772 100.991 42.076 101.639 41.14L103.547 42.436C102.803 43.66 101.783 44.596 100.487 45.244C99.1908 45.868 97.7388 46.18 96.1308 46.18ZM108.568 46V27.1H111.016V32.248L110.764 31.348C111.292 29.908 112.18 28.816 113.428 28.072C114.676 27.304 116.224 26.92 118.072 26.92V29.404C117.976 29.404 117.88 29.404 117.784 29.404C117.688 29.38 117.592 29.368 117.496 29.368C115.504 29.368 113.944 29.98 112.816 31.204C111.688 32.404 111.124 34.12 111.124 36.352V46H108.568ZM130.829 46.18C129.221 46.18 127.817 45.88 126.617 45.28C125.417 44.68 124.481 43.78 123.809 42.58C123.161 41.38 122.837 39.88 122.837 38.08V27.1H125.393V37.792C125.393 39.808 125.885 41.332 126.869 42.364C127.877 43.372 129.281 43.876 131.081 43.876C132.401 43.876 133.541 43.612 134.501 43.084C135.485 42.532 136.229 41.74 136.733 40.708C137.261 39.676 137.525 38.44 137.525 37V27.1H140.081V46H137.633V40.816L138.029 41.752C137.429 43.144 136.493 44.236 135.221 45.028C133.973 45.796 132.509 46.18 130.829 46.18ZM153.181 46.18C151.405 46.18 150.037 45.7 149.077 44.74C148.117 43.78 147.637 42.424 147.637 40.672V22.924H150.193V40.528C150.193 41.632 150.469 42.484 151.021 43.084C151.597 43.684 152.413 43.984 153.469 43.984C154.597 43.984 155.533 43.66 156.277 43.012L157.177 44.848C156.673 45.304 156.061 45.64 155.341 45.856C154.645 46.072 153.925 46.18 153.181 46.18ZM144.253 29.224V27.1H155.953V29.224H144.253ZM169.19 46.18C167.222 46.18 165.494 45.772 164.006 44.956C162.518 44.116 161.354 42.976 160.514 41.536C159.674 40.072 159.254 38.404 159.254 36.532C159.254 34.66 159.65 33.004 160.442 31.564C161.258 30.124 162.362 28.996 163.754 28.18C165.17 27.34 166.754 26.92 168.506 26.92C170.282 26.92 171.854 27.328 173.222 28.144C174.614 28.936 175.706 30.064 176.498 31.528C177.29 32.968 177.686 34.636 177.686 36.532C177.686 36.652 177.674 36.784 177.65 36.928C177.65 37.048 177.65 37.18 177.65 37.324H161.198V35.416H176.282L175.274 36.172C175.274 34.804 174.974 33.592 174.374 32.536C173.798 31.456 173.006 30.616 171.998 30.016C170.99 29.416 169.826 29.116 168.506 29.116C167.21 29.116 166.046 29.416 165.014 30.016C163.982 30.616 163.178 31.456 162.602 32.536C162.026 33.616 161.738 34.852 161.738 36.244V36.64C161.738 38.08 162.05 39.352 162.674 40.456C163.322 41.536 164.21 42.388 165.338 43.012C166.49 43.612 167.798 43.912 169.262 43.912C170.414 43.912 171.482 43.708 172.466 43.3C173.474 42.892 174.338 42.268 175.058 41.428L176.498 43.084C175.658 44.092 174.602 44.86 173.33 45.388C172.082 45.916 170.702 46.18 169.19 46.18ZM182.888 46V27.1H185.336V32.248L185.084 31.348C185.612 29.908 186.5 28.816 187.748 28.072C188.996 27.304 190.544 26.92 192.392 26.92V29.404C192.296 29.404 192.2 29.404 192.104 29.404C192.008 29.38 191.912 29.368 191.816 29.368C189.824 29.368 188.264 29.98 187.136 31.204C186.008 32.404 185.444 34.12 185.444 36.352V46H182.888ZM203.601 46.216C201.801 46.216 200.085 45.928 198.453 45.352C196.821 44.752 195.525 43.96 194.565 42.976L195.825 40.924C196.617 41.764 197.697 42.46 199.065 43.012C200.457 43.564 201.957 43.84 203.565 43.84C205.701 43.84 207.321 43.372 208.425 42.436C209.553 41.476 210.117 40.228 210.117 38.692C210.117 37.612 209.853 36.688 209.325 35.92C208.821 35.128 207.957 34.516 206.733 34.084C205.509 33.652 203.829 33.436 201.693 33.436H196.329L197.625 20.8H211.413V23.104H198.669L200.001 21.844L198.885 32.428L197.553 31.132H202.269C204.813 31.132 206.853 31.444 208.389 32.068C209.925 32.692 211.029 33.568 211.701 34.696C212.397 35.8 212.745 37.096 212.745 38.584C212.745 40 212.409 41.296 211.737 42.472C211.065 43.624 210.057 44.536 208.713 45.208C207.369 45.88 205.665 46.216 203.601 46.216ZM225.612 46.216C223.596 46.216 221.856 45.928 220.392 45.352C218.952 44.776 217.836 43.948 217.044 42.868C216.276 41.764 215.892 40.468 215.892 38.98C215.892 37.54 216.264 36.316 217.008 35.308C217.776 34.276 218.88 33.484 220.32 32.932C221.784 32.38 223.548 32.104 225.612 32.104C227.652 32.104 229.404 32.38 230.868 32.932C232.332 33.484 233.448 34.276 234.216 35.308C235.008 36.316 235.404 37.54 235.404 38.98C235.404 40.468 235.008 41.764 234.216 42.868C233.424 43.948 232.296 44.776 230.832 45.352C229.368 45.928 227.628 46.216 225.612 46.216ZM225.612 44.02C227.844 44.02 229.584 43.564 230.832 42.652C232.104 41.74 232.74 40.504 232.74 38.944C232.74 37.384 232.104 36.16 230.832 35.272C229.584 34.36 227.844 33.904 225.612 33.904C223.38 33.904 221.64 34.36 220.392 35.272C219.144 36.16 218.52 37.384 218.52 38.944C218.52 40.504 219.144 41.74 220.392 42.652C221.64 43.564 223.38 44.02 225.612 44.02ZM225.612 33.58C223.74 33.58 222.144 33.328 220.824 32.824C219.528 32.32 218.532 31.6 217.836 30.664C217.14 29.704 216.792 28.564 216.792 27.244C216.792 25.852 217.152 24.664 217.872 23.68C218.616 22.672 219.648 21.904 220.968 21.376C222.288 20.848 223.836 20.584 225.612 20.584C227.388 20.584 228.936 20.848 230.256 21.376C231.6 21.904 232.644 22.672 233.388 23.68C234.132 24.664 234.504 25.852 234.504 27.244C234.504 28.564 234.156 29.704 233.46 30.664C232.764 31.6 231.744 32.32 230.4 32.824C229.08 33.328 227.484 33.58 225.612 33.58ZM225.612 31.852C227.58 31.852 229.116 31.444 230.22 30.628C231.324 29.812 231.876 28.72 231.876 27.352C231.876 25.912 231.3 24.796 230.148 24.004C229.02 23.188 227.508 22.78 225.612 22.78C223.716 22.78 222.204 23.188 221.076 24.004C219.948 24.796 219.384 25.9 219.384 27.316C219.384 28.708 219.924 29.812 221.004 30.628C222.108 31.444 223.644 31.852 225.612 31.852Z" fill="black"/>
<path d="M28.4492 19.5846L2.47382 24.9446V67H12.3692L28.4492 19.5846Z" fill="#1A1A1A"/>
<ellipse cx="13.4904" cy="9.95075" rx="12.1631" ry="7.52461" transform="rotate(-12.3432 13.4904 9.95075)" fill="#1A1A1A"/>
</svg>
